<?xml version='1.0' encoding='UTF-8'?>
<svg width="82mm" height="82mm" version="1.1" viewBox="0 0 82 82" xmlns="http://www.w3.org/2000/svg"><path d="M4,4H6V6H4zM6,4H8V6H6zM8,4H10V6H8zM10,4H12V6H10zM12,4H14V6H12zM14,4H16V6H14zM16,4H18V6H16zM20,4H22V6H20zM22,4H24V6H22zM24,4H26V6H24zM26,4H28V6H26zM30,4H32V6H30zM32,4H34V6H32zM34,4H36V6H34zM36,4H38V6H36zM40,4H42V6H40zM46,4H48V6H46zM48,4H50V6H48zM50,4H52V6H50zM56,4H58V6H56zM58,4H60V6H58zM60,4H62V6H60zM64,4H66V6H64zM66,4H68V6H66zM68,4H70V6H68zM70,4H72V6H70zM72,4H74V6H72zM74,4H76V6H74zM76,4H78V6H76zM4,6H6V8H4zM16,6H18V8H16zM22,6H24V8H22zM26,6H28V8H26zM28,6H30V8H28zM30,6H32V8H30zM32,6H34V8H32zM36,6H38V8H36zM38,6H40V8H38zM40,6H42V8H40zM42,6H44V8H42zM46,6H48V8H46zM48,6H50V8H48zM52,6H54V8H52zM60,6H62V8H60zM64,6H66V8H64zM76,6H78V8H76zM4,8H6V10H4zM8,8H10V10H8zM10,8H12V10H10zM12,8H14V10H12zM16,8H18V10H16zM22,8H24V10H22zM24,8H26V10H24zM26,8H28V10H26zM28,8H30V10H28zM30,8H32V10H30zM32,8H34V10H32zM34,8H36V10H34zM38,8H40V10H38zM46,8H48V10H46zM50,8H52V10H50zM58,8H60V10H58zM60,8H62V10H60zM64,8H66V10H64zM68,8H70V10H68zM70,8H72V10H70zM72,8H74V10H72zM76,8H78V10H76zM4,10H6V12H4zM8,10H10V12H8zM10,10H12V12H10zM12,10H14V12H12zM16,10H18V12H16zM20,10H22V12H20zM22,10H24V12H22zM24,10H26V12H24zM26,10H28V12H26zM30,10H32V12H30zM40,10H42V12H40zM42,10H44V12H42zM48,10H50V12H48zM50,10H52V12H50zM54,10H56V12H54zM56,10H58V12H56zM60,10H62V12H60zM64,10H66V12H64zM68,10H70V12H68zM70,10H72V12H70zM72,10H74V12H72zM76,10H78V12H76zM4,12H6V14H4zM8,12H10V14H8zM10,12H12V14H10zM12,12H14V14H12zM16,12H18V14H16zM20,12H22V14H20zM22,12H24V14H22zM26,12H28V14H26zM28,12H30V14H28zM34,12H36V14H34zM38,12H40V14H38zM40,12H42V14H40zM50,12H52V14H50zM56,12H58V14H56zM58,12H60V14H58zM64,12H66V14H64zM68,12H70V14H68zM70,12H72V14H70zM72,12H74V14H72zM76,12H78V14H76zM4,14H6V16H4zM16,14H18V16H16zM20,14H22V16H20zM24,14H26V16H24zM26,14H28V16H26zM28,14H30V16H28zM30,14H32V16H30zM38,14H40V16H38zM42,14H44V16H42zM46,14H48V16H46zM64,14H66V16H64zM76,14H78V16H76zM4,16H6V18H4zM6,16H8V18H6zM8,16H10V18H8zM10,16H12V18H10zM12,16H14V18H12zM14,16H16V18H14zM16,16H18V18H16zM20,16H22V18H20zM24,16H26V18H24zM28,16H30V18H28zM32,16H34V18H32zM36,16H38V18H36zM40,16H42V18H40zM44,16H46V18H44zM48,16H50V18H48zM52,16H54V18H52zM56,16H58V18H56zM60,16H62V18H60zM64,16H66V18H64zM66,16H68V18H66zM68,16H70V18H68zM70,16H72V18H70zM72,16H74V18H72zM74,16H76V18H74zM76,16H78V18H76zM20,18H22V20H20zM24,18H26V20H24zM28,18H30V20H28zM34,18H36V20H34zM38,18H40V20H38zM40,18H42V20H40zM46,18H48V20H46zM48,18H50V20H48zM50,18H52V20H50zM60,18H62V20H60zM4,20H6V22H4zM12,20H14V22H12zM16,20H18V22H16zM18,20H20V22H18zM20,20H22V22H20zM22,20H24V22H22zM28,20H30V22H28zM38,20H40V22H38zM44,20H46V22H44zM46,20H48V22H46zM48,20H50V22H48zM50,20H52V22H50zM62,20H64V22H62zM64,20H66V22H64zM66,20H68V22H66zM68,20H70V22H68zM70,20H72V22H70zM76,20H78V22H76zM4,22H6V24H4zM6,22H8V24H6zM26,22H28V24H26zM30,22H32V24H30zM32,22H34V24H32zM36,22H38V24H36zM40,22H42V24H40zM46,22H48V24H46zM50,22H52V24H50zM54,22H56V24H54zM56,22H58V24H56zM58,22H60V24H58zM60,22H62V24H60zM68,22H70V24H68zM70,22H72V24H70zM72,22H74V24H72zM74,22H76V24H74zM4,24H6V26H4zM6,24H8V26H6zM10,24H12V26H10zM16,24H18V26H16zM18,24H20V26H18zM20,24H22V26H20zM22,24H24V26H22zM24,24H26V26H24zM30,24H32V26H30zM32,24H34V26H32zM36,24H38V26H36zM38,24H40V26H38zM40,24H42V26H40zM50,24H52V26H50zM52,24H54V26H52zM54,24H56V26H54zM56,24H58V26H56zM58,24H60V26H58zM64,24H66V26H64zM6,26H8V28H6zM8,26H10V28H8zM10,26H12V28H10zM18,26H20V28H18zM24,26H26V28H24zM28,26H30V28H28zM32,26H34V28H32zM38,26H40V28H38zM40,26H42V28H40zM44,26H46V28H44zM46,26H48V28H46zM50,26H52V28H50zM52,26H54V28H52zM56,26H58V28H56zM66,26H68V28H66zM70,26H72V28H70zM72,26H74V28H72zM74,26H76V28H74zM4,28H6V30H4zM8,28H10V30H8zM10,28H12V30H10zM14,28H16V30H14zM16,28H18V30H16zM22,28H24V30H22zM30,28H32V30H30zM34,28H36V30H34zM38,28H40V30H38zM40,28H42V30H40zM42,28H44V30H42zM44,28H46V30H44zM46,28H48V30H46zM48,28H50V30H48zM50,28H52V30H50zM52,28H54V30H52zM64,28H66V30H64zM66,28H68V30H66zM72,28H74V30H72zM74,28H76V30H74zM76,28H78V30H76zM6,30H8V32H6zM8,30H10V32H8zM10,30H12V32H10zM14,30H16V32H14zM22,30H24V32H22zM24,30H26V32H24zM32,30H34V32H32zM34,30H36V32H34zM36,30H38V32H36zM38,30H40V32H38zM40,30H42V32H40zM50,30H52V32H50zM54,30H56V32H54zM56,30H58V32H56zM58,30H60V32H58zM60,30H62V32H60zM68,30H70V32H68zM70,30H72V32H70zM8,32H10V34H8zM16,32H18V34H16zM18,32H20V34H18zM28,32H30V34H28zM30,32H32V34H30zM34,32H36V34H34zM36,32H38V34H36zM40,32H42V34H40zM46,32H48V34H46zM50,32H52V34H50zM56,32H58V34H56zM58,32H60V34H58zM62,32H64V34H62zM64,32H66V34H64zM66,32H68V34H66zM68,32H70V34H68zM70,32H72V34H70zM72,32H74V34H72zM4,34H6V36H4zM12,34H14V36H12zM18,34H20V36H18zM20,34H22V36H20zM22,34H24V36H22zM28,34H30V36H28zM32,34H34V36H32zM38,34H40V36H38zM42,34H44V36H42zM44,34H46V36H44zM46,34H48V36H46zM52,34H54V36H52zM56,34H58V36H56zM58,34H60V36H58zM60,34H62V36H60zM66,34H68V36H66zM68,34H70V36H68zM72,34H74V36H72zM74,34H76V36H74zM10,36H12V38H10zM14,36H16V38H14zM16,36H18V38H16zM18,36H20V38H18zM20,36H22V38H20zM24,36H26V38H24zM26,36H28V38H26zM28,36H30V38H28zM30,36H32V38H30zM34,36H36V38H34zM36,36H38V38H36zM38,36H40V38H38zM40,36H42V38H40zM42,36H44V38H42zM46,36H48V38H46zM48,36H50V38H48zM50,36H52V38H50zM52,36H54V38H52zM62,36H64V38H62zM64,36H66V38H64zM70,36H72V38H70zM72,36H74V38H72zM74,36H76V38H74zM76,36H78V38H76zM4,38H6V40H4zM12,38H14V40H12zM14,38H16V40H14zM18,38H20V40H18zM20,38H22V40H20zM22,38H24V40H22zM28,38H30V40H28zM30,38H32V40H30zM38,38H40V40H38zM40,38H42V40H40zM48,38H50V40H48zM50,38H52V40H50zM52,38H54V40H52zM56,38H58V40H56zM58,38H60V40H58zM60,38H62V40H60zM68,38H70V40H68zM70,38H72V40H70zM72,38H74V40H72zM74,38H76V40H74zM4,40H6V42H4zM6,40H8V42H6zM8,40H10V42H8zM12,40H14V42H12zM14,40H16V42H14zM16,40H18V42H16zM22,40H24V42H22zM24,40H26V42H24zM26,40H28V42H26zM30,40H32V42H30zM32,40H34V42H32zM34,40H36V42H34zM38,40H40V42H38zM40,40H42V42H40zM44,40H46V42H44zM50,40H52V42H50zM52,40H54V42H52zM58,40H60V42H58zM60,40H62V42H60zM64,40H66V42H64zM68,40H70V42H68zM72,40H74V42H72zM4,42H6V44H4zM6,42H8V44H6zM8,42H10V44H8zM12,42H14V44H12zM14,42H16V44H14zM18,42H20V44H18zM22,42H24V44H22zM26,42H28V44H26zM32,42H34V44H32zM34,42H36V44H34zM36,42H38V44H36zM38,42H40V44H38zM40,42H42V44H40zM46,42H48V44H46zM48,42H50V44H48zM52,42H54V44H52zM56,42H58V44H56zM66,42H68V44H66zM68,42H70V44H68zM72,42H74V44H72zM74,42H76V44H74zM6,44H8V46H6zM10,44H12V46H10zM12,44H14V46H12zM16,44H18V46H16zM18,44H20V46H18zM20,44H22V46H20zM24,44H26V46H24zM30,44H32V46H30zM38,44H40V46H38zM42,44H44V46H42zM46,44H48V46H46zM48,44H50V46H48zM52,44H54V46H52zM58,44H60V46H58zM62,44H64V46H62zM64,44H66V46H64zM66,44H68V46H66zM72,44H74V46H72zM4,46H6V48H4zM8,46H10V48H8zM22,46H24V48H22zM28,46H30V48H28zM32,46H34V48H32zM34,46H36V48H34zM36,46H38V48H36zM38,46H40V48H38zM40,46H42V48H40zM48,46H50V48H48zM50,46H52V48H50zM52,46H54V48H52zM54,46H56V48H54zM58,46H60V48H58zM60,46H62V48H60zM62,46H64V48H62zM66,46H68V48H66zM68,46H70V48H68zM74,46H76V48H74zM4,48H6V50H4zM8,48H10V50H8zM10,48H12V50H10zM16,48H18V50H16zM18,48H20V50H18zM20,48H22V50H20zM22,48H24V50H22zM24,48H26V50H24zM28,48H30V50H28zM30,48H32V50H30zM32,48H34V50H32zM34,48H36V50H34zM40,48H42V50H40zM44,48H46V50H44zM48,48H50V50H48zM50,48H52V50H50zM56,48H58V50H56zM58,48H60V50H58zM60,48H62V50H60zM62,48H64V50H62zM66,48H68V50H66zM68,48H70V50H68zM70,48H72V50H70zM72,48H74V50H72zM4,50H6V52H4zM6,50H8V52H6zM8,50H10V52H8zM18,50H20V52H18zM22,50H24V52H22zM28,50H30V52H28zM30,50H32V52H30zM32,50H34V52H32zM34,50H36V52H34zM36,50H38V52H36zM38,50H40V52H38zM40,50H42V52H40zM44,50H46V52H44zM46,50H48V52H46zM56,50H58V52H56zM58,50H60V52H58zM64,50H66V52H64zM66,50H68V52H66zM68,50H70V52H68zM72,50H74V52H72zM6,52H8V54H6zM10,52H12V54H10zM14,52H16V54H14zM16,52H18V54H16zM30,52H32V54H30zM32,52H34V54H32zM34,52H36V54H34zM40,52H42V54H40zM44,52H46V54H44zM46,52H48V54H46zM48,52H50V54H48zM52,52H54V54H52zM58,52H60V54H58zM64,52H66V54H64zM66,52H68V54H66zM70,52H72V54H70zM72,52H74V54H72zM74,52H76V54H74zM4,54H6V56H4zM8,54H10V56H8zM18,54H20V56H18zM20,54H22V56H20zM22,54H24V56H22zM26,54H28V56H26zM30,54H32V56H30zM32,54H34V56H32zM36,54H38V56H36zM40,54H42V56H40zM50,54H52V56H50zM54,54H56V56H54zM58,54H60V56H58zM60,54H62V56H60zM68,54H70V56H68zM12,56H14V58H12zM16,56H18V58H16zM20,56H22V58H20zM22,56H24V58H22zM24,56H26V58H24zM26,56H28V58H26zM28,56H30V58H28zM36,56H38V58H36zM48,56H50V58H48zM50,56H52V58H50zM56,56H58V58H56zM58,56H60V58H58zM66,56H68V58H66zM72,56H74V58H72zM8,58H10V60H8zM10,58H12V60H10zM22,58H24V60H22zM26,58H28V60H26zM30,58H32V60H30zM32,58H34V60H32zM38,58H40V60H38zM40,58H42V60H40zM44,58H46V60H44zM46,58H48V60H46zM48,58H50V60H48zM52,58H54V60H52zM58,58H60V60H58zM62,58H64V60H62zM66,58H68V60H66zM72,58H74V60H72zM76,58H78V60H76zM4,60H6V62H4zM6,60H8V62H6zM8,60H10V62H8zM12,60H14V62H12zM14,60H16V62H14zM16,60H18V62H16zM18,60H20V62H18zM22,60H24V62H22zM24,60H26V62H24zM26,60H28V62H26zM28,60H30V62H28zM30,60H32V62H30zM34,60H36V62H34zM38,60H40V62H38zM42,60H44V62H42zM44,60H46V62H44zM46,60H48V62H46zM48,60H50V62H48zM50,60H52V62H50zM52,60H54V62H52zM60,60H62V62H60zM62,60H64V62H62zM64,60H66V62H64zM66,60H68V62H66zM68,60H70V62H68zM72,60H74V62H72zM74,60H76V62H74zM20,62H22V64H20zM24,62H26V64H24zM26,62H28V64H26zM30,62H32V64H30zM32,62H34V64H32zM34,62H36V64H34zM36,62H38V64H36zM38,62H40V64H38zM40,62H42V64H40zM44,62H46V64H44zM50,62H52V64H50zM54,62H56V64H54zM56,62H58V64H56zM60,62H62V64H60zM68,62H70V64H68zM4,64H6V66H4zM6,64H8V66H6zM8,64H10V66H8zM10,64H12V66H10zM12,64H14V66H12zM14,64H16V66H14zM16,64H18V66H16zM20,64H22V66H20zM22,64H24V66H22zM28,64H30V66H28zM30,64H32V66H30zM34,64H36V66H34zM36,64H38V66H36zM40,64H42V66H40zM44,64H46V66H44zM46,64H48V66H46zM50,64H52V66H50zM52,64H54V66H52zM54,64H56V66H54zM60,64H62V66H60zM64,64H66V66H64zM68,64H70V66H68zM74,64H76V66H74zM4,66H6V68H4zM16,66H18V68H16zM22,66H24V68H22zM26,66H28V68H26zM28,66H30V68H28zM34,66H36V68H34zM44,66H46V68H44zM46,66H48V68H46zM50,66H52V68H50zM52,66H54V68H52zM60,66H62V68H60zM68,66H70V68H68zM70,66H72V68H70zM72,66H74V68H72zM76,66H78V68H76zM4,68H6V70H4zM8,68H10V70H8zM10,68H12V70H10zM12,68H14V70H12zM16,68H18V70H16zM20,68H22V70H20zM24,68H26V70H24zM36,68H38V70H36zM46,68H48V70H46zM48,68H50V70H48zM52,68H54V70H52zM60,68H62V70H60zM62,68H64V70H62zM64,68H66V70H64zM66,68H68V70H66zM68,68H70V70H68zM70,68H72V70H70zM72,68H74V70H72zM74,68H76V70H74zM76,68H78V70H76zM4,70H6V72H4zM8,70H10V72H8zM10,70H12V72H10zM12,70H14V72H12zM16,70H18V72H16zM24,70H26V72H24zM26,70H28V72H26zM28,70H30V72H28zM30,70H32V72H30zM38,70H40V72H38zM40,70H42V72H40zM46,70H48V72H46zM50,70H52V72H50zM56,70H58V72H56zM58,70H60V72H58zM62,70H64V72H62zM64,70H66V72H64zM66,70H68V72H66zM70,70H72V72H70zM76,70H78V72H76zM4,72H6V74H4zM8,72H10V74H8zM10,72H12V74H10zM12,72H14V74H12zM16,72H18V74H16zM22,72H24V74H22zM24,72H26V74H24zM26,72H28V74H26zM28,72H30V74H28zM32,72H34V74H32zM34,72H36V74H34zM40,72H42V74H40zM50,72H52V74H50zM52,72H54V74H52zM58,72H60V74H58zM62,72H64V74H62zM64,72H66V74H64zM4,74H6V76H4zM16,74H18V76H16zM22,74H24V76H22zM24,74H26V76H24zM28,74H30V76H28zM34,74H36V76H34zM36,74H38V76H36zM38,74H40V76H38zM40,74H42V76H40zM42,74H44V76H42zM44,74H46V76H44zM46,74H48V76H46zM50,74H52V76H50zM58,74H60V76H58zM64,74H66V76H64zM68,74H70V76H68zM72,74H74V76H72zM74,74H76V76H74zM4,76H6V78H4zM6,76H8V78H6zM8,76H10V78H8zM10,76H12V78H10zM12,76H14V78H12zM14,76H16V78H14zM16,76H18V78H16zM20,76H22V78H20zM24,76H26V78H24zM26,76H28V78H26zM28,76H30V78H28zM32,76H34V78H32zM38,76H40V78H38zM44,76H46V78H44zM46,76H48V78H46zM48,76H50V78H48zM50,76H52V78H50zM58,76H60V78H58zM62,76H64V78H62zM64,76H66V78H64zM66,76H68V78H66zM72,76H74V78H72zM74,76H76V78H74zM76,76H78V78H76z" id="qr-path" fill="#000000" fill-opacity="1" fill-rule="nonzero" stroke="none" /></svg>